Coordinates
version=1
nRows=26
nColumns=24
inDegrees=yes

Units are S.I. units (second, meters, Newtons, ...)
Angles are in degrees.

endheader
time	pelvis_tilt	pelvis_list	pelvis_rotation	pelvis_tx	pelvis_ty	pelvis_tz	hip_flexion_r	hip_adduction_r	hip_rotation_r	knee_angle_r	ankle_angle_r	subtalar_angle_r	mtp_angle_r	hip_flexion_l	hip_adduction_l	hip_rotation_l	knee_angle_l	ankle_angle_l	subtalar_angle_l	mtp_angle_l	lumbar_extension	lumbar_bending	lumbar_rotation
      0.70400000	     -3.25941447	      4.36247497	      8.97602960	     -0.00640010	      0.97238032	      0.28430014	     35.44749878	    -10.12281890	    -11.29171108	     -7.07627435	      6.48970821	     -6.89727461	     -0.64570370	    -17.60558416	      3.83222186	      1.41030889	     -3.86434609	     12.08186484	     -6.27830338	      0.06891899	     -8.78830296	     -1.35894649	     -2.14873089
      0.70816667	     -3.09233074	      4.26411686	      9.09567525	     -0.00065112	      0.97171571	      0.28438164	     35.05451587	    -10.07792896	    -11.60949980	     -7.52155537	      6.54441853	     -6.78215961	     -1.44805868	    -18.03344149	      3.58391007	      1.54365814	     -4.01387320	     12.01204148	     -6.29049681	     -0.04783302	     -8.95801801	     -1.07535519	     -2.16978385
      0.71233333	     -3.14960951	      4.24898895	      9.05853175	      0.00517586	      0.97053163	      0.28488823	     35.00234222	    -10.02980214	    -11.65566545	     -8.10025284	      6.60123939	     -6.67720893	     -1.61874461	    -18.22087640	      3.48990388	      1.45824644	     -4.22125531	     12.00518915	     -6.17122586	     -0.06211723	     -8.86832681	     -0.97353854	     -2.11525387
      0.71650000	     -3.14892314	      4.17367632	      9.08989118	      0.01103030	      0.96954873	      0.28527507	     34.82934795	     -9.95410432	    -11.80619126	     -8.60569203	      6.55335777	     -6.63945008	     -1.86615962	    -18.43761325	      3.30358133	      1.40434402	     -4.46822325	     11.98230390	     -6.04290737	     -0.06144213	     -8.84486649	     -0.77606755	     -2.01305534
      0.72066667	     -3.18679649	      4.10503093	      9.09872649	      0.01694378	      0.96850905	      0.28571528	     34.70571990	     -9.87154464	    -11.91063409	     -9.12475239	      6.50365258	     -6.65822668	     -1.95442830	    -18.63443985	      3.13743374	      1.39418614	     -4.67432513	     11.88278295	     -5.98268768	     -0.05098145	     -8.77104806	     -0.59330227	     -1.97404700
      0.72483333	     -3.15794069	      3.99904951	      9.11977768	      0.02291418	      0.96763561	      0.28611175	     34.48100893	     -9.75704940	    -12.11101340	     -9.58581399	      6.33940741	     -6.62737799	     -2.08668763	    -18.88733997	      2.91781922	      1.34670895	     -4.90079127	     11.83081788	     -5.86486243	     -0.01225123	     -8.75101975	     -0.35884122	     -1.89099720
      0.72900000	     -3.19373188	      3.93809189	      9.12325013	      0.02883384	      0.96668123	      0.28659505	     34.34366250	     -9.67398379	    -12.22135996	    -10.05063690	      6.13190828	     -6.66257582	     -2.12975571	    -19.05358002	      2.76106503	      1.30197767	     -5.16544363	     11.66805399	     -5.84053633	      0.00865044	     -8.68220390	     -0.18558724	     -1.86026521
      0.73316667	     -3.08895794	      3.74838412	      9.14648306	      0.03486728	      0.96604238	      0.28703774	     33.99228088	     -9.45574695	    -12.45091892	    -10.38503421	      5.82619068	     -6.76758502	     -2.24656365	    -19.35322073	      2.43582746	      1.21230342	     -5.42755879	     11.58960298	     -5.70371155	      0.11928727	     -8.76440266	      0.16842411	     -1.78136774
      0.73733333	     -3.08604688	      3.60433601	      9.13639821	      0.04090992	      0.96526044	      0.28754141	     33.77989617	     -9.27472621	    -12.61715196	    -10.72838427	      5.43457406	     -6.86736024	     -2.31095929	    -19.54754443	      2.19069113	      1.13607980	     -5.69403329	     11.40965165	     -5.65925281	      0.22906964	     -8.72279671	      0.44610141	     -1.71831059
      0.74150000	     -3.00159948	      3.43553983	      9.10462341	      0.04695221	      0.96466803	      0.28811840	     33.46826209	     -9.04014267	    -12.78501936	    -10.99907412	      4.92659329	     -7.03249448	     -2.36498409	    -19.81519244	      1.90781849	      1.00405295	     -5.97021250	     11.22349544	     -5.53748807	      0.43229240	     -8.78053002	      0.75968526	     -1.64467436
      0.74566667	     -3.06527402	      3.27634291	      9.07462834	      0.05304227	      0.96389064	      0.28863294	     33.33850585	     -8.84347340	    -12.95510570	    -11.28652691	      4.38393922	     -7.16782126	     -2.37419732	    -19.91906892	      1.67376880	      0.94133073	     -6.26913258	     10.99065298	     -5.57964511	      0.52418965	     -8.64902404	      1.04912108	     -1.55481585
      0.74983333	     -2.93790731	      3.04827646	      9.00044786	      0.05910007	      0.96349842	      0.28934628	     32.97170236	     -8.50666423	    -13.07972360	    -11.43379427	      3.65351473	     -7.49626519	     -2.34837435	    -20.18918400	      1.33321013	      0.70714952	     -6.60411710	     10.75520657	     -5.44585277	      0.79585001	     -8.76926550	      1.43259675	     -1.43859254
      0.75400000	     -2.90726643	      2.82612980	      8.91562384	      0.06519408	      0.96300534	      0.29003290	     32.73437512	     -8.19074836	    -13.20329345	    -11.59628599	      2.87257937	     -7.80299589	     -2.28459556	    -20.34939312	      1.02888274	      0.50747767	     -6.95966583	     10.48209500	     -5.40384623	      1.11369895	     -8.76367139	      1.79866816	     -1.29493060
      0.75816667	     -3.00061903	      2.61937560	      8.83452911	      0.07131711	      0.96238319	      0.29063642	     32.66376374	     -7.92720917	    -13.35465135	    -11.81008046	      2.09595264	     -7.98639236	     -2.25771575	    -20.37575033	      0.77628737	      0.40685281	     -7.32298345	     10.13523269	     -5.52195692	      1.23243195	     -8.61738304	      2.13412869	     -1.17738816
      0.76233333	     -2.86039745	      2.34772011	      8.65649048	      0.07739997	      0.96219209	      0.29160348	     32.32012743	     -7.47513138	    -13.35007760	    -11.87862390	      1.11779791	     -8.53229806	     -2.12405428	    -20.60844082	      0.42313459	      0.01012261	     -7.74490563	      9.81277676	     -5.39707573	      1.64541539	     -8.75323690	      2.55503795	     -0.96029381
      0.76650000	     -2.95696797	      2.10584229	      8.54730533	      0.08355941	      0.96171863	      0.29221685	     32.27382074	     -7.16966577	    -13.48966646	    -12.07797791	      0.25532941	     -8.80293882	     -2.06765820	    -20.59003685	      0.15328217	     -0.13877826	     -8.17594018	      9.40460808	     -5.57568218	      1.82238840	     -8.57973759	      2.94615898	     -0.80343835
      0.77066667	     -2.85389567	      1.82586265	      8.28793857	      0.08965216	      0.96157739	      0.29334795	     32.02787161	     -6.67613059	    -13.39316622	    -12.19342584	     -0.78721095	     -9.37506545	     -1.87210147	    -20.75670445	     -0.17247772	     -0.61493773	     -8.65211524	      9.01790850	     -5.44408379	      2.35974716	     -8.69789368	      3.35386053	     -0.52060193
      0.77483333	     -2.87646177	      1.56509065	      8.06785995	      0.09576733	      0.96134020	      0.29430233	     31.94043648	     -6.26297431	    -13.35093995	    -12.38286740	     -1.75974874	     -9.84031037	     -1.65463371	    -20.76717058	     -0.45141819	     -0.96828774	     -9.17313622	      8.55776180	     -5.51212340	      2.97450923	     -8.64869322	      3.74372631	     -0.26117490
      0.77900000	     -2.90142564	      1.29505560	      7.83006491	      0.10188914	      0.96117126	      0.29527055	     31.87664313	     -5.84020899	    -13.29462937	    -12.61221611	     -2.68044701	    -10.26554611	     -1.44003265	    -20.75316408	     -0.73001274	     -1.34382190	     -9.73394915	      8.05114547	     -5.61565083	      3.61649602	     -8.60808317	      4.14297207	      0.00265806
      0.78316667	     -2.91083034	      0.96552777	      7.44624128	      0.10817702	      0.96100117	      0.29656763	     31.82905445	     -5.27095285	    -13.09122889	    -12.87526843	     -3.48014208	    -10.65538349	     -0.99844901	    -20.76050234	     -1.04319197	     -2.00748529	    -10.31131339	      7.51502602	     -5.55863642	      5.02965642	     -8.57125039	      4.59394483	      0.38487050
      0.78733333	     -3.01205901	      0.74652397	      7.32651310	      0.11422138	      0.96095877	      0.29713019	     31.87481371	     -5.01947344	    -13.19232627	    -13.23846487	     -4.23379004	    -10.85684587	     -0.95424867	    -20.59524297	     -1.26190740	     -2.11877869	    -10.97939722	      6.89416003	     -5.96731295	      5.22705897	     -8.43985435	      4.96998189	      0.47612246
      0.79150000	     -3.00688807	      0.43460888	      6.89620944	      0.12043509	      0.96095310	      0.29857597	     31.84651850	     -4.43945928	    -12.88533006	    -13.56727951	     -5.00378139	    -11.31025908	     -0.66490668	    -20.55872510	     -1.55129023	     -2.84333591	    -11.67173982	      6.30294654	     -5.90316463	      6.48658015	     -8.45708632	      5.38094803	      0.92029694
      0.79566667	     -3.08172792	      0.20730978	      6.75066999	      0.12648089	      0.96109894	      0.29920324	     31.88127300	     -4.16549288	    -12.92166821	    -13.98239103	     -5.62970896	    -11.50613199	     -0.62888889	    -20.35922495	     -1.77649587	     -3.01242132	    -12.44786688	      5.59408596	     -6.35101293	      6.72060286	     -8.36757799	      5.76565449	      0.99689390
      0.79983333	     -3.10422372	     -0.08546326	      6.28180598	      0.13268387	      0.96117133	      0.30074869	     31.91069768	     -3.59291322	    -12.54749570	    -14.39601720	     -6.25264083	    -11.86725586	     -0.42178839	    -20.23231690	     -2.04081016	     -3.80072285	    -13.26485870	      4.93777815	     -6.29157117	      8.15433882	     -8.37002754	      6.13935214	      1.48097827
      0.80400000	     -3.15579438	     -0.31202210	      6.13411123	      0.13874092	      0.96148992	      0.30136755	     31.92912139	     -3.33038224	    -12.59266483	    -14.86616569	     -6.72047053	    -11.88347641	     -0.41222816	    -19.99314283	     -2.27353352	     -4.00678072	    -14.14484760	      4.11834209	     -6.70143492	      8.29087887	     -8.31931502	      6.52300412	      1.51101280
      0.80816667	     -3.27407421	     -0.52941415	      5.77534709	      0.14483772	      0.96160165	      0.30265375	     32.06669301	     -2.92216372	    -12.30486554	    -15.37239925	     -7.16436874	    -12.18132648	      0.09176468	    -19.66285911	     -2.47512257	     -4.59103141	    -15.11256571	      3.30549009	     -7.00905873	     17.38080245	     -8.20274766	      6.82536795	      1.78811382
